HIERARCHY
ROOT mixamorig:Hips
{
	OFFSET -0.000008 104.274872 1.554316
	CHANNELS 6 Xposition Yposition Zposition Xrotation Yrotation Zrotation
	JOINT mixamorig:Spine
	{
		OFFSET -0.000005 10.181595 0.131519
		CHANNELS 6 Xposition Yposition Zposition Xrotation Yrotation Zrotation
		JOINT mixamorig:Spine1
		{
			OFFSET -0.000000 9.893959 -1.470707
			CHANNELS 6 Xposition Yposition Zposition Xrotation Yrotation Zrotation
			JOINT mixamorig:Spine2
			{
				OFFSET -0.000000 9.220757 -1.370641
				CHANNELS 6 Xposition Yposition Zposition Xrotation Yrotation Zrotation
				JOINT mixamorig:Neck
				{
					OFFSET 0.000001 16.740417 -2.049036
					CHANNELS 6 Xposition Yposition Zposition Xrotation Yrotation Zrotation
					JOINT mixamorig:Head
					{
						OFFSET 0.000000 9.617874 1.685006
						CHANNELS 6 Xposition Yposition Zposition Xrotation Yrotation Zrotation
						JOINT mixamorig:HeadTop_End
						{
							OFFSET 0.000002 22.037354 7.501101
							CHANNELS 6 Xposition Yposition Zposition Xrotation Yrotation Zrotation
							End Site
							{
								OFFSET 0.000168 2310.654297 -282.823242
							}
						}
					}
				}
				JOINT mixamorig:RightShoulder
				{
					OFFSET -4.569970 11.014908 -2.160885
					CHANNELS 6 Xposition Yposition Zposition Xrotation Yrotation Zrotation
					JOINT mixamorig:RightArm
					{
						OFFSET -10.592851 -0.524811 -2.232101
						CHANNELS 6 Xposition Yposition Zposition Xrotation Yrotation Zrotation
						JOINT mixamorig:RightForeArm
						{
							OFFSET -27.841511 0.000031 -0.000004
							CHANNELS 6 Xposition Yposition Zposition Xrotation Yrotation Zrotation
							JOINT mixamorig:RightHand
							{
								OFFSET -28.328831 -0.000015 0.000015
								CHANNELS 6 Xposition Yposition Zposition Xrotation Yrotation Zrotation
								JOINT mixamorig:RightHandThumb1
								{
									OFFSET -2.464806 -1.573990 2.681852
									CHANNELS 6 Xposition Yposition Zposition Xrotation Yrotation Zrotation
									JOINT mixamorig:RightHandThumb2
									{
										OFFSET -3.215179 -1.872803 1.924282
										CHANNELS 6 Xposition Yposition Zposition Xrotation Yrotation Zrotation
										JOINT mixamorig:RightHandThumb3
										{
											OFFSET -2.654831 -1.527969 1.512609
											CHANNELS 6 Xposition Yposition Zposition Xrotation Yrotation Zrotation
											JOINT mixamorig:RightHandThumb4
											{
												OFFSET -2.018814 -1.152008 1.108052
												CHANNELS 6 Xposition Yposition Zposition Xrotation Yrotation Zrotation
												End Site
												{
													OFFSET -188.809540 -114.533607 132.431396
												}
											}
										}
									}
								}
								JOINT mixamorig:RightHandIndex1
								{
									OFFSET -9.108284 -0.517868 2.259835
									CHANNELS 6 Xposition Yposition Zposition Xrotation Yrotation Zrotation
									JOINT mixamorig:RightHandIndex2
									{
										OFFSET -3.699989 0.000000 0.001215
										CHANNELS 6 Xposition Yposition Zposition Xrotation Yrotation Zrotation
										JOINT mixamorig:RightHandIndex3
										{
											OFFSET -2.850006 0.000031 -0.000522
											CHANNELS 6 Xposition Yposition Zposition Xrotation Yrotation Zrotation
											JOINT mixamorig:RightHandIndex4
											{
												OFFSET -2.772186 -0.000015 -0.000020
												CHANNELS 6 Xposition Yposition Zposition Xrotation Yrotation Zrotation
												End Site
												{
													OFFSET -277.218445 0.000000 -0.050231
												}
											}
										}
									}
								}
								JOINT mixamorig:RightHandMiddle1
								{
									OFFSET -9.532516 -0.000031 -0.000023
									CHANNELS 6 Xposition Yposition Zposition Xrotation Yrotation Zrotation
									JOINT mixamorig:RightHandMiddle2
									{
										OFFSET -3.700005 -0.000015 0.003713
										CHANNELS 6 Xposition Yposition Zposition Xrotation Yrotation Zrotation
										JOINT mixamorig:RightHandMiddle3
										{
											OFFSET -2.949974 0.000015 -0.002054
											CHANNELS 6 Xposition Yposition Zposition Xrotation Yrotation Zrotation
											JOINT mixamorig:RightHandMiddle4
											{
												OFFSET -2.946640 0.000000 -0.000156
												CHANNELS 6 Xposition Yposition Zposition Xrotation Yrotation Zrotation
												End Site
												{
													OFFSET -294.664337 0.000000 -0.113670
												}
											}
										}
									}
								}
								JOINT mixamorig:RightHandRing1
								{
									OFFSET -9.103600 -0.043076 -1.865134
									CHANNELS 6 Xposition Yposition Zposition Xrotation Yrotation Zrotation
									JOINT mixamorig:RightHandRing2
									{
										OFFSET -3.379288 0.000000 -0.001055
										CHANNELS 6 Xposition Yposition Zposition Xrotation Yrotation Zrotation
										JOINT mixamorig:RightHandRing3
										{
											OFFSET -2.889687 -0.000015 0.000379
											CHANNELS 6 Xposition Yposition Zposition Xrotation Yrotation Zrotation
											JOINT mixamorig:RightHandRing4
											{
												OFFSET -2.638809 -0.000015 0.000941
												CHANNELS 6 Xposition Yposition Zposition Xrotation Yrotation Zrotation
												End Site
												{
													OFFSET -263.880371 0.000000 0.516020
												}
											}
										}
									}
								}
								JOINT mixamorig:RightHandPinky1
								{
									OFFSET -8.076683 -0.486710 -3.806280
									CHANNELS 6 Xposition Yposition Zposition Xrotation Yrotation Zrotation
									JOINT mixamorig:RightHandPinky2
									{
										OFFSET -3.600014 -0.000015 -0.003747
										CHANNELS 6 Xposition Yposition Zposition Xrotation Yrotation Zrotation
										JOINT mixamorig:RightHandPinky3
										{
											OFFSET -2.099983 0.000000 -0.005739
											CHANNELS 6 Xposition Yposition Zposition Xrotation Yrotation Zrotation
											JOINT mixamorig:RightHandPinky4
											{
												OFFSET -2.115768 -0.000031 -0.003680
												CHANNELS 6 Xposition Yposition Zposition Xrotation Yrotation Zrotation
												End Site
												{
													OFFSET -211.577087 0.000000 -0.350686
												}
											}
										}
									}
								}
							}
						}
					}
				}
				JOINT mixamorig:LeftShoulder
				{
					OFFSET 4.570447 11.014725 -2.160855
					CHANNELS 6 Xposition Yposition Zposition Xrotation Yrotation Zrotation
					JOINT mixamorig:LeftArm
					{
						OFFSET 10.592371 -0.524597 -2.232119
						CHANNELS 6 Xposition Yposition Zposition Xrotation Yrotation Zrotation
						JOINT mixamorig:LeftForeArm
						{
							OFFSET 27.841532 -0.000031 0.000026
							CHANNELS 6 Xposition Yposition Zposition Xrotation Yrotation Zrotation
							JOINT mixamorig:LeftHand
							{
								OFFSET 28.328846 -0.000061 0.000022
								CHANNELS 6 Xposition Yposition Zposition Xrotation Yrotation Zrotation
								JOINT mixamorig:LeftHandThumb1
								{
									OFFSET 2.466141 -1.576172 2.681732
									CHANNELS 6 Xposition Yposition Zposition Xrotation Yrotation Zrotation
									JOINT mixamorig:LeftHandThumb2
									{
										OFFSET 3.217812 -1.872070 1.916482
										CHANNELS 6 Xposition Yposition Zposition Xrotation Yrotation Zrotation
										JOINT mixamorig:LeftHandThumb3
										{
											OFFSET 2.656029 -1.528778 1.514513
											CHANNELS 6 Xposition Yposition Zposition Xrotation Yrotation Zrotation
											JOINT mixamorig:LeftHandThumb4
											{
												OFFSET 2.020889 -1.154053 1.115139
												CHANNELS 6 Xposition Yposition Zposition Xrotation Yrotation Zrotation
												End Site
												{
													OFFSET 190.885437 -115.081749 130.048782
												}
											}
										}
									}
								}
								JOINT mixamorig:LeftHandIndex1
								{
									OFFSET 9.109314 -0.518021 2.259871
									CHANNELS 6 Xposition Yposition Zposition Xrotation Yrotation Zrotation
									JOINT mixamorig:LeftHandIndex2
									{
										OFFSET 3.699989 0.000000 -0.000322
										CHANNELS 6 Xposition Yposition Zposition Xrotation Yrotation Zrotation
										JOINT mixamorig:LeftHandIndex3
										{
											OFFSET 2.850006 0.000000 0.000352
											CHANNELS 6 Xposition Yposition Zposition Xrotation Yrotation Zrotation
											JOINT mixamorig:LeftHandIndex4
											{
												OFFSET 2.774864 -0.000031 -0.000027
												CHANNELS 6 Xposition Yposition Zposition Xrotation Yrotation Zrotation
												End Site
												{
													OFFSET 277.486267 0.000000 -0.009857
												}
											}
										}
									}
								}
								JOINT mixamorig:LeftHandMiddle1
								{
									OFFSET 9.533394 0.000061 0.000044
									CHANNELS 6 Xposition Yposition Zposition Xrotation Yrotation Zrotation
									JOINT mixamorig:LeftHandMiddle2
									{
										OFFSET 3.699989 -0.000015 -0.000231
										CHANNELS 6 Xposition Yposition Zposition Xrotation Yrotation Zrotation
										JOINT mixamorig:LeftHandMiddle3
										{
											OFFSET 2.949997 -0.000015 -0.000059
											CHANNELS 6 Xposition Yposition Zposition Xrotation Yrotation Zrotation
											JOINT mixamorig:LeftHandMiddle4
											{
												OFFSET 2.952896 0.000031 0.000063
												CHANNELS 6 Xposition Yposition Zposition Xrotation Yrotation Zrotation
												End Site
												{
													OFFSET 295.289337 0.000000 0.022810
												}
											}
										}
									}
								}
								JOINT mixamorig:LeftHandRing1
								{
									OFFSET 9.104523 -0.042999 -1.865074
									CHANNELS 6 Xposition Yposition Zposition Xrotation Yrotation Zrotation
									JOINT mixamorig:LeftHandRing2
									{
										OFFSET 3.150009 -0.000031 0.000043
										CHANNELS 6 Xposition Yposition Zposition Xrotation Yrotation Zrotation
										JOINT mixamorig:LeftHandRing3
										{
											OFFSET 2.949982 -0.000015 0.000040
											CHANNELS 6 Xposition Yposition Zposition Xrotation Yrotation Zrotation
											JOINT mixamorig:LeftHandRing4
											{
												OFFSET 2.644348 0.000000 0.000057
												CHANNELS 6 Xposition Yposition Zposition Xrotation Yrotation Zrotation
												End Site
												{
													OFFSET 264.434631 0.000000 0.012105
												}
											}
										}
									}
								}
								JOINT mixamorig:LeftHandPinky1
								{
									OFFSET 8.077789 -0.486847 -3.806259
									CHANNELS 6 Xposition Yposition Zposition Xrotation Yrotation Zrotation
									JOINT mixamorig:LeftHandPinky2
									{
										OFFSET 3.599953 0.000031 0.014727
										CHANNELS 6 Xposition Yposition Zposition Xrotation Yrotation Zrotation
										JOINT mixamorig:LeftHandPinky3
										{
											OFFSET 2.100021 0.000015 0.007705
											CHANNELS 6 Xposition Yposition Zposition Xrotation Yrotation Zrotation
											JOINT mixamorig:LeftHandPinky4
											{
												OFFSET 2.125504 0.000031 0.007517
												CHANNELS 6 Xposition Yposition Zposition Xrotation Yrotation Zrotation
												End Site
												{
													OFFSET 212.550781 0.000000 0.625752
												}
											}
										}
									}
								}
							}
						}
					}
				}
			}
		}
	}
	JOINT mixamorig:RightUpLeg
	{
		OFFSET -8.207787 -6.751648 -1.599560
		CHANNELS 6 Xposition Yposition Zposition Xrotation Yrotation Zrotation
		JOINT mixamorig:RightLeg
		{
			OFFSET -0.000002 -44.370117 0.345942
			CHANNELS 6 Xposition Yposition Zposition Xrotation Yrotation Zrotation
			JOINT mixamorig:RightFoot
			{
				OFFSET 0.000003 -44.423679 -3.043532
				CHANNELS 6 Xposition Yposition Zposition Xrotation Yrotation Zrotation
				JOINT mixamorig:RightToeBase
				{
					OFFSET -0.000002 -8.728671 10.710558
					CHANNELS 6 Xposition Yposition Zposition Xrotation Yrotation Zrotation
					JOINT mixamorig:RightToe_End
					{
						OFFSET -0.000001 -0.000679 9.278119
						CHANNELS 6 Xposition Yposition Zposition Xrotation Yrotation Zrotation
						End Site
						{
							OFFSET 0.000000 -0.067690 927.812134
						}
					}
				}
			}
		}
	}
	JOINT mixamorig:LeftUpLeg
	{
		OFFSET 8.207793 -6.751686 -1.599556
		CHANNELS 6 Xposition Yposition Zposition Xrotation Yrotation Zrotation
		JOINT mixamorig:LeftLeg
		{
			OFFSET -0.000004 -44.370014 0.346954
			CHANNELS 6 Xposition Yposition Zposition Xrotation Yrotation Zrotation
			JOINT mixamorig:LeftFoot
			{
				OFFSET -0.000001 -44.423672 -3.044401
				CHANNELS 6 Xposition Yposition Zposition Xrotation Yrotation Zrotation
				JOINT mixamorig:LeftToeBase
				{
					OFFSET -0.000002 -8.728669 10.710558
					CHANNELS 6 Xposition Yposition Zposition Xrotation Yrotation Zrotation
					JOINT mixamorig:LeftToe_End
					{
						OFFSET -0.000003 -0.000679 9.278133
						CHANNELS 6 Xposition Yposition Zposition Xrotation Yrotation Zrotation
						End Site
						{
							OFFSET 0.000000 -0.068021 927.813477
						}
					}
				}
			}
		}
	}
}
MOTION
Frames: 3
Frame Time: 0.033333
0.000006 104.270477 1.554256 0.000010 0.000003 -0.000113 -0.000005 10.181587 0.131522 0.000001 -0.000003 0.000084 -0.000000 9.893967 -1.470711 0.000001 0.000000 -0.000000 -0.000000 9.220802 -1.370642 0.000000 -0.000000 -0.000000 0.000001 16.740433 -2.049030 0.000000 -0.000000 -0.000000 0.000000 9.617859 1.685014 0.000000 0.000000 0.000000 0.000002 22.037384 7.501101 0.000000 -0.000000 0.000000 -4.569968 11.014880 -2.160881 0.000008 0.000001 -0.000038 -10.592795 -0.524834 -2.231755 54.426642 66.748509 -37.426285 -27.841450 0.000028 0.000611 26.009132 109.051784 -35.914272 -28.328829 0.000006 0.000029 -0.000321 -0.000044 0.000007 -2.464341 -1.574025 2.682185 -17.877177 -114.892101 26.774203 -3.214736 -1.872501 1.924654 124.882824 -13.522611 144.274181 -2.654953 -1.527824 1.512997 151.495549 31.396648 5.517213 -2.018812 -1.151998 1.108069 -0.000003 0.000001 0.000005 -9.108335 -0.517616 2.260317 147.625632 4.384722 344.828848 -3.700042 0.000230 0.001733 151.325040 4.694700 -18.136109 -2.850055 0.000217 0.000002 157.655683 6.739372 -33.196560 -2.772160 0.000001 -0.000035 0.000002 -0.000001 0.000002 -9.532555 0.000275 0.000352 123.299982 7.636679 -14.345419 -3.700003 -0.000022 0.003731 -366.863449 -0.879890 -0.058162 -2.949975 -0.000150 -0.001951 -41.693739 -3.357819 -1.281458 -2.946624 -0.000015 -0.000153 -0.000001 0.000002 -0.000001 -9.103628 -0.042697 -1.864761 122.813222 1.657926 -2.973476 -3.379110 -0.000091 -0.001057 -200.938565 -149.666821 174.271771 -2.889623 -0.000187 0.000463 313.265533 -18.496827 -8.023646 -2.638822 -0.000018 0.000941 0.000006 0.000003 0.000005 -8.076582 -0.486300 -3.805920 125.456355 -10.766938 20.891539 -3.599785 -0.000154 -0.003749 -25.106903 -40.754117 -9.637239 -2.099836 -0.000198 -0.005693 -225.821449 -155.384003 -190.667996 -2.115768 -0.000042 -0.003680 -0.000002 -0.000001 -0.000003 4.570446 11.014691 -2.160851 -0.000018 0.000010 -0.000021 10.592494 -0.524557 -2.232366 43.692959 -66.768118 29.598157 27.841747 -0.000068 -0.000103 228.378768 -73.762280 241.816509 28.328833 -0.000027 0.000015 0.000021 -0.000090 -0.000000 2.466087 -1.576187 2.681872 -113.635319 69.112908 67.153675 3.217619 -1.872071 1.916535 -23.114521 126.662470 -21.709087 2.655694 -1.528742 1.514607 -50.039602 157.604853 23.919519 2.020883 -1.154071 1.115149 0.000001 0.000005 0.000006 9.109044 -0.517788 2.259987 191.368568 -11.756275 -91.936901 3.700142 0.000109 -0.000290 164.740679 -12.487875 78.596565 2.850094 0.000272 0.000301 -37.077962 -169.626040 210.289421 2.774891 -0.000047 -0.000028 -0.000000 0.000003 -0.000002 9.533498 0.000352 0.000000 144.227422 -9.439334 28.672946 3.700002 0.000144 -0.000381 69.293389 1.741026 -1.204694 2.950007 -0.000010 -0.000143 21.430605 8.012644 -1.518324 2.952887 -0.000015 0.000058 0.000000 -0.000000 0.000001 9.104590 -0.042713 -1.865160 132.879008 -7.137366 -343.717522 3.149966 0.000112 -0.000135 45.424921 17.279006 -7.277543 2.949974 -0.000018 0.000016 -6.966364 16.271758 0.996808 2.644321 0.000015 0.000052 0.000000 0.000001 0.000002 8.077814 -0.486551 -3.806366 127.214008 -3.850535 8.780043 3.599915 0.000057 0.014556 34.557356 20.141237 -6.278737 2.099993 0.000008 0.007721 -13.528007 21.606503 2.468381 2.125509 -0.000003 0.007514 -0.000004 -0.000002 -0.000002 -8.207786 -6.751667 -1.599560 -0.077001 -0.000003 0.000080 -0.000002 -44.370110 0.345938 0.153719 -0.000000 -0.000000 0.000000 -44.423679 -3.043532 -0.076700 0.000000 -0.000002 -0.000006 -8.728667 10.710559 -0.000009 -0.000000 -0.000000 -0.000001 -0.000679 9.278123 0.000000 -0.000000 -0.000000 8.207792 -6.751710 -1.599556 -0.074518 -0.000003 0.000081 -0.000002 -44.370014 0.346960 0.148822 0.000002 0.000000 -0.000001 -44.423664 -3.044403 -0.074314 0.000000 -0.000002 -0.000004 -8.728671 10.710558 0.000007 -0.000000 -0.000000 0.000000 -0.000680 9.278137 -0.000000 0.000000 -0.000001 
0.000006 104.270477 1.554256 0.000010 0.000003 -0.000113 -0.000005 10.181587 0.131522 0.000001 -0.000003 0.000084 -0.000000 9.893967 -1.470711 0.000001 0.000000 -0.000000 -0.000000 9.220802 -1.370642 0.000000 -0.000000 -0.000000 0.000001 16.740433 -2.049030 0.000000 -0.000000 -0.000000 0.000000 9.617859 1.685014 0.000000 0.000000 0.000000 0.000002 22.037384 7.501101 0.000000 -0.000000 0.000000 -4.569968 11.014880 -2.160881 0.000008 0.000001 -0.000038 -10.592789 -0.524835 -2.231745 55.700633 69.011938 -39.923566 -27.841459 0.000002 0.000611 24.754342 108.994868 -34.198269 -28.328836 0.000021 0.000032 -0.000321 -0.000045 0.000007 -2.464375 -1.574064 2.682176 12.302314 -108.724966 58.497538 -3.214678 -1.872574 1.924657 128.829184 -25.127026 157.285979 -2.654876 -1.527714 1.512969 140.837722 31.659972 42.460472 -2.018853 -1.152007 1.108061 0.000003 -0.000000 0.000000 -9.108334 -0.517636 2.260347 154.775980 4.260397 340.930504 -3.700028 0.000222 0.001732 152.441640 4.779450 -19.224291 -2.850068 0.000274 -0.000017 151.223503 6.337794 -24.353161 -2.772177 0.000006 -0.000024 0.000001 0.000001 -0.000001 -9.532562 0.000278 0.000350 120.091364 8.080540 -14.203283 -3.700019 0.000039 0.003698 -354.330188 1.476655 -0.068146 -2.949981 -0.000136 -0.001991 -29.393395 -4.135851 -1.087011 -2.946623 -0.000015 -0.000168 -0.000000 -0.000002 -0.000001 -9.103633 -0.042687 -1.864783 118.082865 3.122972 -5.140697 -3.379148 -0.000073 -0.001064 -194.958242 -155.841544 176.786592 -2.889629 -0.000157 0.000430 318.853994 -16.336853 -6.146098 -2.638808 -0.000032 0.000942 0.000002 -0.000000 0.000003 -8.076575 -0.486280 -3.805957 116.044969 -12.810028 20.525135 -3.599817 -0.000124 -0.003765 -15.650532 -32.016245 -4.646699 -2.099849 -0.000184 -0.005698 -218.528802 -156.820119 -188.312263 -2.115769 -0.000036 -0.003676 -0.000001 -0.000000 -0.000003 4.570446 11.014691 -2.160851 -0.000018 0.000010 -0.000021 10.592499 -0.524549 -2.232366 46.651152 -67.505744 32.148570 27.841747 -0.000044 -0.000097 234.712347 -73.764793 249.174727 28.328840 -0.000029 0.000015 0.000021 -0.000088 -0.000000 2.466131 -1.576159 2.681867 -99.459268 56.292462 49.572055 3.217700 -1.872066 1.916533 8.832813 123.101606 -61.020077 2.655788 -1.528822 1.514634 -34.158182 144.570024 -7.761930 2.020887 -1.154086 1.115154 -0.000001 0.000003 0.000004 9.109129 -0.517672 2.260020 203.625998 -12.455855 -55.092176 3.699836 0.000332 -0.000161 208.342777 -10.506085 -40.043989 2.849884 0.000368 0.000522 33.032581 -170.912753 149.997074 2.774886 -0.000030 -0.000036 0.000001 0.000003 0.000000 9.533546 0.000230 0.000046 155.754459 -15.087092 63.269668 3.700015 0.000108 -0.000379 62.642062 -2.719918 1.653862 2.950001 0.000009 -0.000106 11.617751 7.884050 -0.803247 2.952885 -0.000012 0.000062 0.000001 -0.000000 0.000001 9.104668 -0.042764 -1.865113 146.385256 -14.878276 -313.238486 3.149975 0.000094 -0.000117 40.841024 18.554089 -6.959929 2.949963 0.000021 0.000016 -8.369208 21.613551 1.599881 2.644329 0.000032 0.000057 -0.000000 -0.000004 0.000002 8.077885 -0.486570 -3.806304 143.003766 -11.167952 34.295370 3.599940 0.000077 0.014585 36.331590 18.827258 -6.170242 2.099979 -0.000013 0.007678 -5.448278 22.393272 0.980326 2.125504 -0.000014 0.007504 0.000004 0.000001 0.000003 -8.207786 -6.751667 -1.599560 -0.077001 -0.000003 0.000080 -0.000002 -44.370110 0.345938 0.153719 -0.000000 -0.000000 0.000000 -44.423679 -3.043532 -0.076700 0.000000 -0.000002 -0.000006 -8.728667 10.710559 -0.000009 -0.000000 -0.000000 -0.000001 -0.000679 9.278123 0.000000 -0.000000 -0.000000 8.207792 -6.751710 -1.599556 -0.074518 -0.000003 0.000081 -0.000002 -44.370014 0.346960 0.148822 0.000002 0.000000 -0.000001 -44.423664 -3.044403 -0.074314 0.000000 -0.000002 -0.000004 -8.728671 10.710558 0.000007 -0.000000 -0.000000 0.000000 -0.000680 9.278137 -0.000000 0.000000 -0.000001 
0.000006 104.270477 1.554256 0.000010 0.000003 -0.000113 -0.000005 10.181587 0.131522 0.000001 -0.000003 0.000084 -0.000000 9.893967 -1.470711 0.000001 0.000000 -0.000000 -0.000000 9.220802 -1.370642 0.000000 -0.000000 -0.000000 0.000001 16.740433 -2.049030 0.000000 -0.000000 -0.000000 0.000000 9.617859 1.685014 0.000000 0.000000 0.000000 0.000002 22.037384 7.501101 0.000000 -0.000000 0.000000 -4.569968 11.014880 -2.160881 0.000008 0.000001 -0.000038 -10.592772 -0.524831 -2.231731 58.616397 73.241006 -45.293361 -27.841467 0.000018 0.000601 36.165015 107.878426 -48.303357 -28.328829 0.000037 0.000024 -0.000321 -0.000044 0.000007 -2.464408 -1.574123 2.682114 64.959115 -105.047148 108.773822 -3.214702 -1.872848 1.924666 162.592640 -53.195610 209.695250 -2.654437 -1.527787 1.513069 131.948299 -16.189896 159.074860 -2.018826 -1.152004 1.108059 -0.000001 0.000002 0.000002 -9.108272 -0.517862 2.260405 170.585245 8.371909 276.255470 -3.700136 0.000265 0.001545 99.620037 23.679439 -27.843218 -2.850078 0.000155 -0.000466 30.598390 15.140796 -4.163933 -2.772167 -0.000015 -0.000003 0.000002 0.000001 0.000002 -9.532551 0.000149 0.000491 155.431487 6.132125 -28.266478 -3.700027 0.000126 0.003730 -336.290047 5.954583 -1.229989 -2.949992 -0.000072 -0.002034 -9.496978 1.077545 0.089071 -2.946628 -0.000014 -0.000154 -0.000001 -0.000000 0.000001 -9.103620 -0.042762 -1.864662 147.374090 0.603461 -1.937448 -3.379169 0.000071 -0.001093 -169.229603 -162.049749 181.706992 -2.889669 -0.000071 0.000384 344.917176 -10.013839 -1.320023 -2.638816 0.000000 0.000935 -0.000002 -0.000003 -0.000000 -8.076499 -0.486295 -3.805860 142.040300 -16.502523 45.877216 -3.599815 -0.000038 -0.003801 0.101983 -31.825314 -0.059892 -2.099856 -0.000099 -0.005774 -198.642173 -157.974762 -183.730559 -2.115775 -0.000056 -0.003681 -0.000001 -0.000001 -0.000003 4.570446 11.014691 -2.160851 -0.000018 0.000010 -0.000021 10.592508 -0.524568 -2.232369 48.081096 -70.363755 34.912809 27.841753 -0.000066 -0.000104 237.555783 -76.171117 250.049537 28.328831 -0.000044 0.000025 0.000022 -0.000088 0.000000 2.466141 -1.576181 2.681866 -109.699368 55.890089 57.408785 3.217704 -1.872056 1.916528 7.271831 124.019529 -59.773847 2.655858 -1.528839 1.514618 -18.628398 136.136598 -30.329783 2.020883 -1.154082 1.115145 0.000003 0.000002 0.000003 9.109084 -0.517765 2.260008 198.257032 -14.725872 -77.605292 3.699788 0.000300 -0.000162 203.252482 -15.279512 -66.218308 2.849807 0.000357 0.000507 25.251443 -166.377398 123.865672 2.774874 -0.000033 -0.000031 -0.000000 -0.000001 -0.000001 9.533534 0.000179 0.000065 160.517205 -16.303173 79.635115 3.700033 0.000020 -0.000324 33.051818 -12.301481 3.661827 2.949997 -0.000019 -0.000063 0.552556 -0.697418 0.003391 2.952852 -0.000031 0.000057 -0.000000 0.000001 -0.000001 9.104681 -0.042880 -1.865069 159.155647 -16.452753 -283.656062 3.149979 0.000052 -0.000090 24.651403 22.123731 -4.892136 2.949965 0.000005 -0.000017 -1.874153 17.975045 0.296181 2.644317 0.000027 0.000046 0.000002 -0.000001 -0.000003 8.077937 -0.486690 -3.806240 161.360419 -13.023982 72.937015 3.599907 0.000024 0.014631 18.037993 27.206167 -4.440332 2.099985 0.000006 0.007676 0.952956 19.715230 -0.232752 2.125505 -0.000018 0.007520 -0.000000 0.000000 -0.000001 -8.207786 -6.751667 -1.599560 -0.077001 -0.000003 0.000080 -0.000002 -44.370110 0.345938 0.153719 -0.000000 -0.000000 0.000000 -44.423679 -3.043532 -0.076700 0.000000 -0.000002 -0.000006 -8.728667 10.710559 -0.000009 -0.000000 -0.000000 -0.000001 -0.000679 9.278123 0.000000 -0.000000 -0.000000 8.207792 -6.751710 -1.599556 -0.074518 -0.000003 0.000081 -0.000002 -44.370014 0.346960 0.148822 0.000002 0.000000 -0.000001 -44.423664 -3.044403 -0.074314 0.000000 -0.000002 -0.000004 -8.728671 10.710558 0.000007 -0.000000 -0.000000 0.000000 -0.000680 9.278137 -0.000000 0.000000 -0.000001 
